arm28_optimize_states
version=1
nRows=27
nColumns=21
inDegrees=yes

# SIMM Motion File Header:
name arm28_optimize_states
datacolumns 21
datarows 27
otherdata 1
range 0.00000000 0.08498804
endheader
time	r_shoulder_elev	r_elbow_flex	r_shoulder_elev_u	r_elbow_flex_u	TRIlong.activation	TRIlong.fiber_length	TRIlat.activation	TRIlat.fiber_length	TRImed.activation	TRImed.fiber_length	BIClong.activation	BIClong.fiber_length	BICshort.activation	BICshort.fiber_length	BRA.activation	BRA.fiber_length	DeltAnt.activation	DeltAnt.fiber_length	DeltPost.activation	DeltPost.fiber_length
      0.00000000	      0.85272659	     21.52699572	     28.71972964	     50.88387967	      0.05000000	      0.14481351	      0.05000000	      0.07834987	      0.05000000	      0.07341550	      0.15823423	      0.13836881	      0.16952712	      0.14042862	      0.09498515	      0.08610560	      0.05000000	      0.16149680	      0.06500964	      0.10917110
      0.00101804	      0.88199051	     21.57877068	     28.77188310	     50.82694355	      0.04941933	      0.14485461	      0.04941933	      0.07837178	      0.04941933	      0.07343733	      0.15548602	      0.13834991	      0.16650289	      0.14041166	      0.09360900	      0.08610177	      0.04941933	      0.16147996	      0.06418027	      0.10919743
      0.00274013	      0.93162498	     21.66617819	     28.87624023	     50.67490698	      0.04845812	      0.14492880	      0.04845812	      0.07841162	      0.04845812	      0.07347690	      0.15098579	      0.13832044	      0.16155623	      0.14038638	      0.09134127	      0.08609696	      0.04845812	      0.16145316	      0.06280947	      0.10924464
      0.00446222	      0.98145417	     21.75327484	     28.99594405	     50.47098798	      0.04752265	      0.14500603	      0.04752265	      0.07845368	      0.04752265	      0.07351850	      0.14666369	      0.13829358	      0.15681184	      0.14036459	      0.08914645	      0.08609363	      0.04752265	      0.16142733	      0.06147785	      0.10929330
      0.00693373	      1.05333497	     21.87760934	     29.17073720	     50.13821641	      0.04622346	      0.14511872	      0.04622346	      0.07851589	      0.04622346	      0.07357974	      0.14075335	      0.13825858	      0.15033431	      0.14033798	      0.08611804	      0.08609046	      0.04622346	      0.16139070	      0.05963250	      0.10936396
      0.01024210	      1.15020307	     22.04270071	     29.38479226	     49.65434967	      0.04456085	      0.14527008	      0.04456085	      0.07860015	      0.04456085	      0.07366237	      0.13334200	      0.13821648	      0.14222843	      0.14030847	      0.08227565	      0.08608786	      0.04456085	      0.16134152	      0.05727778	      0.10945907
      0.01398873	      1.26071284	     22.22757356	     29.60546061	     49.00859689	      0.04277790	      0.14544073	      0.04277790	      0.07869516	      0.04277790	      0.07375535	      0.12557812	      0.13817304	      0.13375685	      0.14028045	      0.07819592	      0.08608587	      0.04277790	      0.16128515	      0.05476107	      0.10956714
      0.01773535	      1.37203747	     22.40972545	     29.82237819	     48.19343973	      0.04109450	      0.14561008	      0.04109450	      0.07878894	      0.04109450	      0.07384706	      0.11841648	      0.13813213	      0.12596037	      0.14025583	      0.07438215	      0.08608417	      0.04109450	      0.16122799	      0.05239287	      0.10967548
      0.01947684	      1.42406141	     22.49327203	     29.92458871	     47.74793219	      0.04034414	      0.14568827	      0.04034414	      0.07883200	      0.04034414	      0.07388916	      0.11527558	      0.13811357	      0.12254647	      0.14024509	      0.07269399	      0.08608338	      0.04034414	      0.16120115	      0.05133975	      0.10972593
      0.02005864	      1.44148155	     22.52100586	     29.95832084	     47.59085068	      0.04009784	      0.14571430	      0.04009784	      0.07884630	      0.04009784	      0.07390314	      0.11425139	      0.13810741	      0.12143397	      0.14024158	      0.07214145	      0.08608311	      0.04009784	      0.16119214	      0.05099441	      0.10974280
      0.02064044	      1.45892023	     22.54864917	     29.98929104	     47.43488776	      0.03985370	      0.14574030	      0.03985370	      0.07886056	      0.03985370	      0.07391708	      0.11323945	      0.13810126	      0.12033512	      0.14023809	      0.07159451	      0.08608283	      0.03985370	      0.16118307	      0.05065226	      0.10975967
      0.02354943	      1.54639852	     22.68540233	     30.15656365	     46.56184613	      0.03866463	      0.14586958	      0.03866463	      0.07893115	      0.03866463	      0.07398608	      0.10835708	      0.13807063	      0.11503826	      0.14022105	      0.06894154	      0.08608141	      0.03866463	      0.16113755	      0.04898816	      0.10984410
      0.02744888	      1.66444627	     22.86437820	     30.38970980	     45.20080799	      0.03715005	      0.14604093	      0.03715005	      0.07902377	      0.03715005	      0.07407659	      0.10224693	      0.13802955	      0.10842058	      0.14019888	      0.06558813	      0.08607937	      0.03715005	      0.16107591	      0.04687403	      0.10995749
      0.03134833	      1.78338936	     23.03770676	     30.61335998	     43.67254145	      0.03572103	      0.14620977	      0.03572103	      0.07911381	      0.03572103	      0.07416456	      0.09659078	      0.13798812	      0.10230566	      0.14017724	      0.06245038	      0.08607722	      0.03572103	      0.16101343	      0.04488500	      0.11007118
      0.03591431	      1.92372010	     23.23271325	     30.84982283	     41.71685770	      0.03414926	      0.14640391	      0.03414926	      0.07921560	      0.03414926	      0.07426396	      0.09048814	      0.13793899	      0.09571995	      0.14015247	      0.05902824	      0.08607463	      0.03414926	      0.16093920	      0.04270362	      0.11020458
      0.04048030	      2.06504514	     23.41846931	     31.04645237	     39.62944933	      0.03267944	      0.14659387	      0.03267944	      0.07931316	      0.03267944	      0.07435919	      0.08489052	      0.13788925	      0.08969007	      0.14012841	      0.05585525	      0.08607208	      0.03267944	      0.16086392	      0.04066970	      0.11033825
      0.04504628	      2.20716514	     23.59446105	     31.19722395	     37.44510559	      0.03130427	      0.14677933	      0.03130427	      0.07940625	      0.03130427	      0.07445001	      0.07974625	      0.13783911	      0.08415766	      0.14010530	      0.05291006	      0.08606967	      0.03130427	      0.16078770	      0.03877195	      0.11047193
      0.04882327	      2.32516820	     23.73239930	     31.28197724	     35.59040251	      0.03023347	      0.14692915	      0.03023347	      0.07947977	      0.03023347	      0.07452167	      0.07580126	      0.13779757	      0.07992091	      0.14008709	      0.05063228	      0.08606786	      0.03023347	      0.16072404	      0.03729770	      0.11058246
      0.05260025	      2.44342140	     23.86327208	     31.32949186	     33.70581365	      0.02921932	      0.14707556	      0.02921932	      0.07955004	      0.02921932	      0.07459014	      0.07211295	      0.13775618	      0.07596446	      0.14006986	      0.04848747	      0.08606625	      0.02921932	      0.16065992	      0.03590425	      0.11069275
      0.05787882	      2.60883243	     24.03417884	     31.33020314	     31.04621735	      0.02789074	      0.14727425	      0.02789074	      0.07964276	      0.02789074	      0.07468040	      0.06735021	      0.13769896	      0.07086205	      0.14004772	      0.04569579	      0.08606442	      0.02789074	      0.16056969	      0.03408286	      0.11084630
      0.06109442	      2.70952483	     24.13139779	     31.29244003	     29.42101673	      0.02712897	      0.14739185	      0.02712897	      0.07969609	      0.02712897	      0.07473227	      0.06465409	      0.13766468	      0.06797695	      0.14003549	      0.04410433	      0.08606358	      0.02712897	      0.16051450	      0.03304062	      0.11093944
      0.06431001	      2.81005002	     24.22339102	     31.22622518	     27.79662806	      0.02640111	      0.14750675	      0.02640111	      0.07974702	      0.02640111	      0.07478178	      0.06210121	      0.13763097	      0.06524732	      0.14002429	      0.04258992	      0.08606296	      0.02640111	      0.16045919	      0.03204620	      0.11103210
      0.06881962	      2.95057036	     24.34362302	     31.08462963	     25.52910514	      0.02543437	      0.14766326	      0.02543437	      0.07981444	      0.02543437	      0.07484724	      0.05874504	      0.13758488	      0.06166201	      0.14001046	      0.04058782	      0.08606251	      0.02543437	      0.16038154	      0.03072755	      0.11116117
      0.07284884	      3.07548278	     24.44242861	     30.91079626	     23.51907156	      0.02462088	      0.14779850	      0.02462088	      0.07987073	      0.02462088	      0.07490182	      0.05595099	      0.13754505	      0.05868000	      0.14000006	      0.03891128	      0.08606251	      0.02462088	      0.16031221	      0.02961981	      0.11127547
      0.07687807	      3.19960590	     24.53317503	     30.69303763	     21.52941117	      0.02385192	      0.14792930	      0.02385192	      0.07992333	      0.02385192	      0.07495277	      0.05333480	      0.13750668	      0.05589012	      0.13999161	      0.03733335	      0.08606277	      0.02385192	      0.16024306	      0.02857430	      0.11138865
      0.08093306	      3.32354719	     24.61645922	     30.42965248	     19.55341426	      0.02312037	      0.14805643	      0.02312037	      0.07997259	      0.02312037	      0.07500040	      0.05086803	      0.13746969	      0.05326161	      0.13998514	      0.03583831	      0.08606338	      0.02312037	      0.16017375	      0.02758107	      0.11150130
      0.08498804	      3.44633288	     24.69178874	     30.12331031	     17.60636454	      0.02242879	      0.14817900	      0.02242879	      0.08001821	      0.02242879	      0.07504444	      0.04855568	      0.13743448	      0.05079945	      0.13998077	      0.03443042	      0.08606436	      0.02242879	      0.16010484	      0.02664339	      0.11161252
